<?xml version="1.0"?>
<svg xmlns="http://www.w3.org/2000/svg" xmlns:xlink="http://www.w3.org/1999/xlink" version="1.1" id="Capa_1" x="0px" y="0px" viewBox="0 0 512 512" style="enable-background:new 0 0 512 512;" xml:space="preserve" width="512px" height="512px" class=""><g><g>
	<g>
		<g>
			<path d="M345.6,410.4c4,4,9.6,5.6,15.2,5.6c1.6,0,3.2,0,4.8-0.8C396,408.8,448,385.6,448,304s-52-104.8-82.4-111.2     c-7.2-1.6-14.4,0-20,4.8c-6.4,4.8-9.6,12.8-9.6,20.8v171.2C336,397.6,339.2,405.6,345.6,410.4z M352,218.4c0-3.2,1.6-6.4,4-8.8     c1.6-0.8,3.2-1.6,4.8-1.6h1.6c32,7.2,69.6,28.8,69.6,96s-37.6,88.8-69.6,96c-2.4,0.8-4.8,0-6.4-1.6c-2.4-2.4-4-5.6-4-8.8V218.4z" data-original="#000000" class="active-path" data-old_color="#ffffff" fill="#ffffff"/>
			<path d="M504,448H398.4c50.4-24.8,81.6-76,81.6-132V152c0-4.8-3.2-8-8-8H40c-4.8,0-8,3.2-8,8v164c0,56,31.2,107.2,81.6,132H8     c-4.8,0-8,3.2-8,8v48c0,4.8,3.2,8,8,8h496c4.8,0,8-3.2,8-8v-48C512,451.2,508.8,448,504,448z M48,316V160h416v156     c0,72.8-59.2,132-132,132H180C107.2,448,48,388.8,48,316z M496,496H16v-32h480V496z" data-original="#000000" class="active-path" data-old_color="#ffffff" fill="#ffffff"/>
			<path d="M132.8,69.6l20.8,20.8c3.2,3.2,8,3.2,11.2,0L208,45.6l-11.2-11.2l-38.4,39.2l-20.8-20.8c-3.2-3.2-8-3.2-11.2,0     l-52.8,53.6l11.2,11.2L132.8,69.6z" data-original="#000000" class="active-path" data-old_color="#ffffff" fill="#ffffff"/>
			<path d="M208,117.6l47.2-48L276,90.4c3.2,3.2,8,3.2,11.2,0l44-44.8L320,34.4l-38.4,39.2l-20.8-20.8c-3.2-3.2-8-3.2-11.2,0     l-52.8,53.6L208,117.6z" data-original="#000000" class="active-path" data-old_color="#ffffff" fill="#ffffff"/>
			<path d="M331.2,117.6l47.2-48l20.8,20.8c1.6,1.6,3.2,2.4,5.6,2.4c2.4,0,4-0.8,5.6-2.4l44-44.8l-11.2-11.2l-38.4,39.2L384,52     c-1.6-1.6-3.2-2.4-5.6-2.4c-2.4,0-4,0.8-5.6,2.4L320,106.4L331.2,117.6z" data-original="#000000" class="active-path" data-old_color="#ffffff" fill="#ffffff"/>
			<rect x="64" y="320" width="16" height="16" data-original="#000000" class="active-path" data-old_color="#ffffff" fill="#ffffff"/>
			<rect x="64" y="176" width="16" height="128" data-original="#000000" class="active-path" data-old_color="#ffffff" fill="#ffffff"/>
			<rect x="496" width="16" height="16" data-original="#000000" class="active-path" data-old_color="#ffffff" fill="#ffffff"/>
			<rect x="496" y="32" width="16" height="16" data-original="#000000" class="active-path" data-old_color="#ffffff" fill="#ffffff"/>
			<rect x="464" width="16" height="16" data-original="#000000" class="active-path" data-old_color="#ffffff" fill="#ffffff"/>
			<rect width="16" height="16" data-original="#000000" class="active-path" data-old_color="#ffffff" fill="#ffffff"/>
			<rect x="32" width="16" height="16" data-original="#000000" class="active-path" data-old_color="#ffffff" fill="#ffffff"/>
			<rect y="32" width="16" height="16" data-original="#000000" class="active-path" data-old_color="#ffffff" fill="#ffffff"/>
		</g>
	</g>
</g></g> </svg>
