<?xml version="1.0"?>
<svg xmlns="http://www.w3.org/2000/svg" xmlns:xlink="http://www.w3.org/1999/xlink" version="1.1" id="Capa_1" x="0px" y="0px" viewBox="0 0 504.32 504.32" style="enable-background:new 0 0 504.32 504.32;" xml:space="preserve" width="512px" height="512px" class=""><g><g>
	<g>
		<rect x="400.56" y="389.52" width="16" height="16" data-original="#000000" class="active-path" data-old_color="#fc5288" fill="#fc5288"/>
	</g>
</g><g>
	<g>
		<rect x="4.16" y="16" width="16" height="16" data-original="#000000" class="active-path" data-old_color="#fc5288" fill="#fc5288"/>
	</g>
</g><g>
	<g>
		<rect x="20.16" width="16" height="16" data-original="#000000" class="active-path" data-old_color="#fc5288" fill="#fc5288"/>
	</g>
</g><g>
	<g>
		<rect x="20.16" y="32" width="16" height="16" data-original="#000000" class="active-path" data-old_color="#fc5288" fill="#fc5288"/>
	</g>
</g><g>
	<g>
		<rect x="36.16" y="16" width="16" height="16" data-original="#000000" class="active-path" data-old_color="#fc5288" fill="#fc5288"/>
	</g>
</g><g>
	<g>
		<rect x="436.16" y="24.32" width="16" height="16" data-original="#000000" class="active-path" data-old_color="#fc5288" fill="#fc5288"/>
	</g>
</g><g>
	<g>
		<rect x="452.16" y="8.32" width="16" height="16" data-original="#000000" class="active-path" data-old_color="#fc5288" fill="#fc5288"/>
	</g>
</g><g>
	<g>
		<rect x="452.16" y="40.32" width="16" height="16" data-original="#000000" class="active-path" data-old_color="#fc5288" fill="#fc5288"/>
	</g>
</g><g>
	<g>
		<rect x="468.16" y="24.32" width="16" height="16" data-original="#000000" class="active-path" data-old_color="#fc5288" fill="#fc5288"/>
	</g>
</g><g>
	<g>
		<rect x="20.16" y="120.32" width="16" height="16" data-original="#000000" class="active-path" data-old_color="#fc5288" fill="#fc5288"/>
	</g>
</g><g>
	<g>
		<rect x="92.16" y="72" width="16" height="16" data-original="#000000" class="active-path" data-old_color="#fc5288" fill="#fc5288"/>
	</g>
</g><g>
	<g>
		<rect x="444.16" y="120.32" width="16" height="16" data-original="#000000" class="active-path" data-old_color="#fc5288" fill="#fc5288"/>
	</g>
</g><g>
	<g>
		<rect x="404.16" y="64.32" width="16" height="16" data-original="#000000" class="active-path" data-old_color="#fc5288" fill="#fc5288"/>
	</g>
</g><g>
	<g>
		<rect x="108.16" y="16" width="16" height="16" data-original="#000000" class="active-path" data-old_color="#fc5288" fill="#fc5288"/>
	</g>
</g><g>
	<g>
		<rect x="188.16" y="16.32" width="16" height="16" data-original="#000000" class="active-path" data-old_color="#fc5288" fill="#fc5288"/>
	</g>
</g><g>
	<g>
		<rect x="316.16" y="8.32" width="16" height="16" data-original="#000000" class="active-path" data-old_color="#fc5288" fill="#fc5288"/>
	</g>
</g><g>
	<g>
		<path d="M252.16,104.32c-46.392,0-84,37.608-84,84s37.608,84,84,84c46.374-0.044,83.956-37.626,84-84    C336.16,141.928,298.552,104.32,252.16,104.32z M252.16,256.32c-37.537-0.044-67.956-30.463-68-68c0-37.555,30.445-68,68-68    s68,30.445,68,68S289.715,256.32,252.16,256.32z" data-original="#000000" class="active-path" data-old_color="#fc5288" fill="#fc5288"/>
	</g>
</g><g>
	<g>
		<path d="M443.68,397.84c-4.219-1.325-8.715,1.021-10.04,5.24c-1.325,4.219,1.021,8.715,5.24,10.04    c33.2,10.32,45.28,21.92,45.28,27.2c0,20.08-88,48-232,48s-232-27.92-232-48c0-14.56,54.48-39.12,171.04-46.16    c6.4,7.44,12.56,14.08,18.4,19.92c-18.64,5.76-29.44,15.04-29.44,26.24c0,21.04,36.24,32,72,32s72-10.96,72-32    c0-6.96-4-16.8-23.2-24c-2.071-0.774-4.181-1.441-6.32-2c5.92-6,12.08-12.64,18.48-20.08c16,0.96,42.24,2.8,63.52,5.68h1.04    c4.418,0.309,8.251-3.022,8.56-7.44s-3.022-8.251-7.44-8.56c-17.2-2.32-37.52-4-53.28-5.04    c42.818-53.521,66.577-119.786,67.52-188.32c0-33.04-10.16-140.88-140.88-140.88S111.28,157.52,111.28,190.56    c0.913,68.564,24.674,134.864,67.52,188.4C91.68,385.28,4.16,404.32,4.16,440.32c0,42,124.72,64,248,64s248-22,248-64    C500.16,419.76,469.44,405.84,443.68,397.84z M294.88,431.04c9.76,3.68,13.28,7.6,13.28,9.28c0,4.64-19.6,16-56,16    c-36.4,0-56-11.36-56-16c0-2.72,8-9.28,26.96-13.2c7.762,7.182,15.908,13.938,24.4,20.24c1.36,0.949,2.981,1.453,4.64,1.44    c1.667-0.011,3.289-0.542,4.64-1.52c8.387-6.216,16.401-12.921,24-20.08C285.586,428.112,290.294,429.396,294.88,431.04z     M127.28,190.56c0-29.28,8.96-124.88,124.88-124.88c112.72,0,124.88,87.36,124.88,124.88c0,133.76-101.76,221.92-124.88,240    C229.04,412.32,127.28,324.32,127.28,190.56z" data-original="#000000" class="active-path" data-old_color="#fc5288" fill="#fc5288"/>
	</g>
</g></g> </svg>
