<?xml version="1.0"?>
<svg xmlns="http://www.w3.org/2000/svg" xmlns:xlink="http://www.w3.org/1999/xlink" version="1.1" id="Capa_1" x="0px" y="0px" viewBox="0 0 512.4 512.4" style="enable-background:new 0 0 512.4 512.4;" xml:space="preserve" width="512px" height="512px" class=""><g><g>
	<g>
		<g>
			<path d="M476.2,126L260.2,1.2c-2.4-1.6-5.6-1.6-8,0L40.2,126c-2.4,1.6-4,4-4,7.2v87.2c0,3.2,1.6,5.6,4,7.2l50.4,28.8L40.2,286     c-2.4,1.6-4,4-4,7.2v87.2c0,3.2,1.6,5.6,4,7.2l213.6,124c1.6,0.8,2.4,0.8,4,0.8c1.6,0,2.4-0.8,4-0.8l214.4-124c2.4-1.6,4-4,4-7.2     v-87.2c0-3.2-1.6-5.6-4-7.2l-50.4-29.6l50.4-28.8c2.4-1.6,4-4,4-7.2v-87.2C480.2,130.8,478.6,127.6,476.2,126z M264.2,22     l192,111.2l-16.8,9.6L264.2,43.6V22z M256.2,58l167.2,94.4L257,247.6L94.6,153.2L256.2,58z M248.2,22v21.6L78.6,144.4l-18.4-11.2     L248.2,22z M52.2,216.4v-69.6L249,261.2V330L52.2,216.4z M106.6,266.8l17.6,9.6l-45.6,27.2l-18.4-10.4L106.6,266.8z M250.6,490.8     L52.2,375.6v-68.8L250.6,422V490.8z M257,406.8L94.6,313.2L141,286l113.6,65.6c1.6,0.8,2.4,0.8,4,0.8c1.6,0,2.4,0,4-0.8     l113.6-66.4l46.4,26.4L257,406.8z M464.2,375.6L265.8,490v-69.6l198.4-113.6V375.6z M456.2,293.2l-16.8,9.6l-47.2-27.2l17.6-10.4     L456.2,293.2z M464.2,216.4L265,331.6V262l199.2-115.2V216.4z" data-original="#000000" class="active-path" data-old_color="#fc5288" fill="#fc5288"/>
			<rect x="0.2" y="0.4" width="16" height="16" data-original="#000000" class="active-path" data-old_color="#fc5288" fill="#fc5288"/>
			<rect x="32.2" y="0.4" width="16" height="16" data-original="#000000" class="active-path" data-old_color="#fc5288" fill="#fc5288"/>
			<rect x="72.2" y="0.4" width="16" height="16" data-original="#000000" class="active-path" data-old_color="#fc5288" fill="#fc5288"/>
			<rect x="0.2" y="32.4" width="16" height="16" data-original="#000000" class="active-path" data-old_color="#fc5288" fill="#fc5288"/>
			<rect x="32.2" y="32.4" width="16" height="16" data-original="#000000" class="active-path" data-old_color="#fc5288" fill="#fc5288"/>
			<rect x="496.2" y="0.4" width="16" height="16" data-original="#000000" class="active-path" data-old_color="#fc5288" fill="#fc5288"/>
			<rect x="496.2" y="32.4" width="16" height="16" data-original="#000000" class="active-path" data-old_color="#fc5288" fill="#fc5288"/>
			<rect x="464.2" y="0.4" width="16" height="16" data-original="#000000" class="active-path" data-old_color="#fc5288" fill="#fc5288"/>
			<rect x="432.2" y="0.4" width="16" height="16" data-original="#000000" class="active-path" data-old_color="#fc5288" fill="#fc5288"/>
			<rect x="464.2" y="32.4" width="16" height="16" data-original="#000000" class="active-path" data-old_color="#fc5288" fill="#fc5288"/>
			<rect x="496.2" y="496.4" width="16" height="16" data-original="#000000" class="active-path" data-old_color="#fc5288" fill="#fc5288"/>
			<rect x="464.2" y="496.4" width="16" height="16" data-original="#000000" class="active-path" data-old_color="#fc5288" fill="#fc5288"/>
			<rect x="424.2" y="496.4" width="16" height="16" data-original="#000000" class="active-path" data-old_color="#fc5288" fill="#fc5288"/>
			<rect x="496.2" y="464.4" width="16" height="16" data-original="#000000" class="active-path" data-old_color="#fc5288" fill="#fc5288"/>
			<rect x="464.2" y="464.4" width="16" height="16" data-original="#000000" class="active-path" data-old_color="#fc5288" fill="#fc5288"/>
			<rect x="0.2" y="496.4" width="16" height="16" data-original="#000000" class="active-path" data-old_color="#fc5288" fill="#fc5288"/>
			<rect x="0.2" y="464.4" width="16" height="16" data-original="#000000" class="active-path" data-old_color="#fc5288" fill="#fc5288"/>
			<rect x="32.2" y="496.4" width="16" height="16" data-original="#000000" class="active-path" data-old_color="#fc5288" fill="#fc5288"/>
			<rect x="64.2" y="496.4" width="16" height="16" data-original="#000000" class="active-path" data-old_color="#fc5288" fill="#fc5288"/>
			<rect x="32.2" y="464.4" width="16" height="16" data-original="#000000" class="active-path" data-old_color="#fc5288" fill="#fc5288"/>
		</g>
	</g>
</g></g> </svg>
